<svg width="24" height="24" viewBox="0 0 24 24" fill="none" xmlns="http://www.w3.org/2000/svg">
<circle cx="12" cy="12" r="12" fill="#D0D0D0"/>
<mask id="mask0_171:5343" style="mask-type:alpha" maskUnits="userSpaceOnUse" x="0" y="0" width="24" height="24">
<circle cx="12" cy="12" r="12" fill="#323232"/>
</mask>
<g mask="url(#mask0_171:5343)">
<path fill-rule="evenodd" clip-rule="evenodd" d="M16 10C16 12.2091 14.2091 14 12 14C9.79086 14 8 12.2091 8 10C8 7.79086 9.79086 6 12 6C14.2091 6 16 7.79086 16 10Z" fill="#6C6C6C"/>
<path d="M11.7492 15.6934H11.7508C14.0705 15.6959 16.2944 16.6185 17.9346 18.2588C19.5748 19.899 20.4974 22.1229 20.5 24.4425C20.5 24.8772 20.3273 25.2949 20.02 25.6022C19.7126 25.9096 19.2958 26.0822 18.8611 26.0822V24.5822C18.8979 24.5822 18.9333 24.5676 18.9593 24.5416C18.9853 24.5156 18.9999 24.4804 19 24.4437L3.75 24.4434L4.5 24.4442C4.5 24.481 4.51463 24.5155 4.54068 24.5416C4.56673 24.5676 4.60205 24.5822 4.63889 24.5822V26.0822C4.20423 26.0822 3.78737 25.9096 3.48002 25.6022C3.17267 25.2949 3 24.878 3 24.4434C3.00257 22.1237 3.92518 19.899 5.56541 18.2588C7.20564 16.6185 9.42953 15.6959 11.7492 15.6934Z" fill="#6C6C6C"/>
</g>
</svg>
