<svg width="16" height="15" viewBox="0 0 16 15" fill="none" xmlns="http://www.w3.org/2000/svg">
<path d="M14.0265 10.2171L11.9098 9.97546C11.4015 9.91712 10.9015 10.0921 10.5432 10.4505L9.00983 11.9838C6.6515 10.7838 4.71817 8.85879 3.51817 6.49212L5.05983 4.95046C5.41817 4.59212 5.59317 4.09212 5.53483 3.58379L5.29317 1.48379C5.19317 0.642123 4.48483 0.00878906 3.63483 0.00878906H2.19317C1.2515 0.00878906 0.468165 0.792122 0.526499 1.73379C0.968165 8.85046 6.65983 14.5338 13.7682 14.9755C14.7098 15.0338 15.4932 14.2505 15.4932 13.3088V11.8671C15.5015 11.0255 14.8682 10.3171 14.0265 10.2171Z" fill="#5E6263"/>
</svg>
