<svg width="22" height="24" viewBox="0 0 22 24" fill="none" xmlns="http://www.w3.org/2000/svg">
<path d="M21.3602 2.29251C14.0732 -0.136524 14.5212 -0.0196392 14.2807 0.0105896C14.1684 0.0247433 14.6984 -0.144163 7.62558 2.21345L1.11396 0.0429274C0.629126 -0.118809 0.126953 0.242672 0.126953 0.754312V17.2513C0.126953 17.5741 0.333493 17.8606 0.639671 17.9627C7.90293 20.3837 7.38351 20.2115 7.42724 20.2235C7.5459 20.256 7.65576 20.2579 7.7658 20.237C7.8436 20.2221 7.52758 20.324 12.0118 18.8291C12.4962 19.1292 13.0414 19.3398 13.6244 19.4381V23.2502C13.6244 23.6643 13.9601 24.0001 14.3743 24.0001C14.7884 24.0001 15.1242 23.6643 15.1242 23.2502V19.4381C15.7071 19.3398 16.2524 19.1292 16.7368 18.8291L20.8859 20.2123C21.3711 20.3739 21.873 20.0125 21.873 19.5009V3.0039C21.873 2.68113 21.6664 2.39454 21.3602 2.29251ZM14.3743 18.0011C12.7204 18.0011 11.3749 16.6556 11.3749 15.0016C11.3749 13.3477 12.7204 12.0022 14.3743 12.0022C16.0283 12.0022 17.3738 13.3477 17.3738 15.0016C17.3738 16.6556 16.0283 18.0011 14.3743 18.0011ZM1.62668 1.79465L6.87571 3.54432V18.4604L1.62668 16.7108V1.79465ZM8.37544 3.54436L13.6245 1.7947V10.5654C10.336 11.1194 8.7649 14.9751 10.7527 17.668L8.37544 18.4605V3.54436ZM20.3732 18.4604L17.996 17.6679C19.9827 14.9765 18.4151 11.1198 15.1242 10.5653V1.79465L20.3732 3.54432V18.4604Z" fill="#1678C0"/>
</svg>
