<svg width="24" height="24" viewBox="0 0 24 24" fill="none" xmlns="http://www.w3.org/2000/svg">
<path d="M9 21H4C3.46957 21 2.96086 20.7893 2.58579 20.4142C2.21071 20.0391 2 19.5304 2 19V5C2 4.46957 2.21071 3.96086 2.58579 3.58579C2.96086 3.21071 3.46957 3 4 3H9L11 6H20C20.5304 6 21.0391 6.21071 21.4142 6.58579C21.7893 6.96086 22 7.46957 22 8V10.5" stroke="#1678C0" stroke-width="1.5" stroke-linecap="round" stroke-linejoin="round"/>
<path d="M16.5 21C18.9853 21 21 18.9853 21 16.5C21 14.0147 18.9853 12 16.5 12C14.0147 12 12 14.0147 12 16.5C12 18.9853 14.0147 21 16.5 21Z" stroke="#1678C0" stroke-width="1.5" stroke-linecap="round" stroke-linejoin="round"/>
<path d="M22 22L20 20" stroke="#1678C0" stroke-width="1.5" stroke-linecap="round" stroke-linejoin="round"/>
</svg>
