<svg width="18" height="24" viewBox="0 0 18 24" fill="none" xmlns="http://www.w3.org/2000/svg">
<path d="M8.60493 2.24792L8.60496 2.24791C11.1736 0.899493 13.7779 0.898791 16.1361 1.70535C16.734 1.90983 17.1735 2.11787 17.4279 2.26603C17.6892 2.41832 17.85 2.69803 17.85 3.00052V13.0185C17.85 13.6742 17.139 14.083 16.5723 13.7531C16.4045 13.6553 16.0636 13.4954 15.5861 13.3321C13.6386 12.6664 11.5021 12.6655 9.39493 13.7712C6.89202 15.0845 4.35566 15.1183 2.046 14.3735L1.84997 14.3103V14.5163V23C1.84997 23.4695 1.46942 23.85 0.999984 23.85C0.530551 23.85 0.15 23.4695 0.15 23V13.0185V3.00047V0.999984C0.15 0.530546 0.530546 0.15 0.999984 0.15C1.46943 0.15 1.85002 0.530555 1.85002 0.999984V2.37169V2.47221L1.943 2.51043C2.07982 2.56666 2.23725 2.62646 2.41396 2.68687C4.36137 3.35263 6.49792 3.35348 8.60493 2.24792ZM16 11.6703L16.0236 11.5203H16.1499V3.62911V3.52863L16.057 3.49039C15.9202 3.43409 15.7625 3.37424 15.5859 3.31384C13.6386 2.64784 11.5021 2.64698 9.39488 3.75316C6.892 5.06645 4.35555 5.10064 2.04595 4.35593L1.84992 4.29272V4.49869V12.3898V12.4903L1.94288 12.5285C2.0797 12.5847 2.23728 12.6445 2.41387 12.7049C4.36133 13.3707 6.49788 13.3715 8.60502 12.2659C11.0704 10.9722 13.5683 10.9197 15.8499 11.6301V11.6703H15.9999H16Z" fill="#1678C0" stroke="#1678C0" stroke-width="0.3"/>
</svg>
