<svg width="16" height="16" viewBox="0 0 16 16" fill="none" xmlns="http://www.w3.org/2000/svg">
<rect width="16" height="16" rx="8" fill="#EC7F07"/>
<path d="M6.45665 8.21374C6.57525 8.21374 6.66606 8.18782 6.72906 8.13599C6.79207 8.08417 6.83654 8.03419 6.86249 7.98607C6.89214 7.92683 6.91067 7.8602 6.91808 7.78616C6.92549 7.70842 6.9292 7.62142 6.9292 7.52517C6.9292 7.44003 6.92549 7.36229 6.91808 7.29195C6.91437 7.22161 6.9014 7.15683 6.87917 7.0976C6.85693 7.03837 6.82728 6.99209 6.79022 6.95878C6.75315 6.92546 6.71424 6.9014 6.67347 6.88659C6.63641 6.86808 6.59934 6.85697 6.56228 6.85327C6.52893 6.84957 6.50484 6.84772 6.49001 6.84772H6.10641C6.0953 6.84772 6.07862 6.85327 6.05638 6.86438C6.03785 6.87178 6.02488 6.87918 6.01747 6.88659C5.99152 6.9125 5.97855 6.94582 5.97855 6.98654V8.21374H6.45665ZM5.97855 9.94625H4.88892V6.62005C4.88892 6.5349 4.90003 6.45346 4.92227 6.37572C4.94822 6.29798 5.00381 6.22764 5.08905 6.16471C5.15577 6.11658 5.22433 6.08697 5.29475 6.07586C5.36517 6.06476 5.43559 6.0592 5.506 6.0592H6.87361C6.92179 6.0592 6.97923 6.06291 7.04595 6.07031C7.11636 6.07401 7.19049 6.08697 7.26832 6.10918C7.34615 6.12769 7.42398 6.15731 7.50181 6.19803C7.58335 6.23875 7.65747 6.29428 7.72419 6.36461C7.79831 6.44236 7.85576 6.52935 7.89653 6.6256C7.941 6.71815 7.9725 6.8144 7.99104 6.91435C8.01327 7.0106 8.02625 7.105 8.02995 7.19755C8.03736 7.2901 8.04107 7.37154 8.04107 7.44188C8.04107 7.50481 8.03922 7.58626 8.03551 7.68621C8.0318 7.78246 8.02254 7.88426 8.00771 7.99162C7.99289 8.09898 7.9688 8.20633 7.93544 8.31369C7.90209 8.42104 7.85761 8.51544 7.80202 8.59689C7.73531 8.69314 7.65933 8.76903 7.57408 8.82456C7.48884 8.87638 7.39989 8.91525 7.30724 8.94117C7.21458 8.96708 7.12378 8.98374 7.03483 8.99114C6.94588 8.99855 6.86249 9.00225 6.78466 9.00225H5.97855V9.94625Z" fill="white"/>
<path d="M8.27587 8.21374H9.88252C9.90476 8.21374 9.92699 8.20633 9.94923 8.19152C9.96776 8.18042 9.97703 8.16191 9.97703 8.13599C9.97703 8.11749 9.97147 8.10453 9.96035 8.09712C9.94923 8.08602 9.93811 8.07676 9.92699 8.06936C9.90846 8.05825 9.87696 8.04715 9.83249 8.03604C9.78801 8.02123 9.70833 7.99347 9.59343 7.95275L8.95967 7.74729C8.82624 7.70287 8.70579 7.65104 8.59831 7.59181C8.49083 7.52888 8.40929 7.45114 8.3537 7.35859C8.31293 7.28825 8.28328 7.20681 8.26475 7.11426C8.24992 7.02171 8.24251 6.93842 8.24251 6.86438C8.24251 6.77183 8.25178 6.68113 8.27031 6.59228C8.29254 6.49974 8.32961 6.41459 8.38149 6.33685C8.45932 6.21839 8.55383 6.1425 8.66502 6.10918C8.77621 6.07586 8.90963 6.0592 9.06529 6.0592H11.0333V6.8144H9.43221C9.41368 6.8144 9.3933 6.8144 9.37106 6.8144C9.34882 6.8107 9.32658 6.81255 9.30435 6.81995C9.28952 6.82366 9.27655 6.82921 9.26543 6.83661C9.25802 6.84031 9.25431 6.85142 9.25431 6.86993C9.25431 6.89214 9.25987 6.90695 9.27099 6.91435C9.28211 6.92176 9.29693 6.92916 9.31547 6.93656C9.34882 6.94767 9.37291 6.95693 9.38774 6.96433C9.40256 6.96803 9.41553 6.97358 9.42665 6.98099C9.43777 6.98469 9.45074 6.99024 9.46557 6.99765C9.48039 7.00135 9.50448 7.00875 9.53784 7.01986L10.2828 7.26974C10.4385 7.32157 10.5719 7.37525 10.6831 7.43077C10.798 7.4863 10.8906 7.5659 10.961 7.66955C11.0315 7.7695 11.0741 7.87316 11.0889 7.98051C11.1037 8.08787 11.1111 8.17301 11.1111 8.23595C11.1111 8.3433 11.0945 8.45436 11.0611 8.56912C11.0315 8.68388 10.9666 8.78198 10.8665 8.86343C10.7887 8.92636 10.7072 8.96523 10.6219 8.98004C10.5367 8.99485 10.457 9.00225 10.3829 9.00225H8.27587V8.21374Z" fill="white"/>
</svg>
