<svg width="24" height="24" viewBox="0 0 24 24" fill="none" xmlns="http://www.w3.org/2000/svg">
<g clip-path="url(#clip0_1309_5947)">
<path d="M22.25 24H1.75C0.785 24 0 23.215 0 22.25V9.75C0 8.785 0.785 8 1.75 8H22.25C23.215 8 24 8.785 24 9.75V22.25C24 23.215 23.215 24 22.25 24ZM1.75 9.5C1.612 9.5 1.5 9.612 1.5 9.75V22.25C1.5 22.388 1.612 22.5 1.75 22.5H22.25C22.388 22.5 22.5 22.388 22.5 22.25V9.75C22.5 9.612 22.388 9.5 22.25 9.5H1.75Z" fill="#1678C0"/>
<path d="M20.5 5C19.122 5 18 3.879 18 2.5C18 1.121 19.122 0 20.5 0C21.878 0 23 1.121 23 2.5C23 3.879 21.878 5 20.5 5ZM20.5 1.5C19.949 1.5 19.5 1.948 19.5 2.5C19.5 3.052 19.949 3.5 20.5 3.5C21.051 3.5 21.5 3.052 21.5 2.5C21.5 1.948 21.051 1.5 20.5 1.5Z" fill="#1678C0"/>
<path d="M23.2501 6.00016C23.0581 6.00016 22.8661 5.92716 22.7201 5.78016L21.3701 4.43016C21.0771 4.13716 21.0771 3.66216 21.3701 3.36916C21.6631 3.07616 22.1381 3.07616 22.4311 3.36916L23.7811 4.71916C24.0741 5.01216 24.0741 5.48716 23.7811 5.78016C23.6341 5.92716 23.4421 6.00016 23.2501 6.00016Z" fill="#1678C0"/>
<path d="M14.25 6H1.75C0.785 6 0 5.215 0 4.25V1.75C0 0.785 0.785 0 1.75 0H14.25C15.215 0 16 0.785 16 1.75V4.25C16 5.215 15.215 6 14.25 6ZM1.75 1.5C1.612 1.5 1.5 1.612 1.5 1.75V4.25C1.5 4.388 1.612 4.5 1.75 4.5H14.25C14.388 4.5 14.5 4.388 14.5 4.25V1.75C14.5 1.612 14.388 1.5 14.25 1.5H1.75Z" fill="#1678C0"/>
<path d="M8.25 19.5V15.8489C8.25 15.5489 8.38463 15.2649 8.61676 15.0749L11.7418 12.5181C12.1101 12.2167 12.6399 12.2167 13.0082 12.5181L16.1332 15.0749C16.3654 15.2649 16.5 15.5489 16.5 15.8489V19.5" stroke="#1678C0" stroke-width="2" stroke-linecap="round"/>
</g>
<defs>
<clipPath id="clip0_1309_5947">
<rect width="24" height="24" fill="white"/>
</clipPath>
</defs>
</svg>
